<?xml version="1.0" encoding="utf-8"?>
<!-- Generator: Adobe Illustrator 23.0.0, SVG Export Plug-In . SVG Version: 6.00 Build 0)  -->
<svg version="1.1" id="Layer_1" xmlns="http://www.w3.org/2000/svg" xmlns:xlink="http://www.w3.org/1999/xlink" x="0px" y="0px"
	 viewBox="0 0 512 512" style="enable-background:new 0 0 512 512;" xml:space="preserve">
<style type="text/css">
	.st0{fill:#3A3C92;}
</style>
<g id="Contact-Connection">
	<path class="st0" d="M321.5,162.3c-3.1-3.1-8.2-3.1-11.3,0l-20.9,20.9l-12.3,2.4l-23.4-23.4c-1.5-1.5-3.5-2.3-5.7-2.3h-30.6
		l-20.3-20.3c-3.1-3.1-8.2-3.1-11.3,0l-79.2,79.2c-3.1,3.1-3.1,8.2,0,11.3l22.6,22.6l35,35c-5.7,11.8-0.8,26.1,11.1,31.8
		c2.9,1.4,6.1,2.2,9.3,2.4c0.5,12.3,10.4,22.1,22.7,22.6c0.5,12.3,10.3,22.1,22.6,22.6c0.7,13.2,12,23.3,25.2,22.6
		c5.9-0.3,11.4-2.8,15.6-6.9l8.5,8.5c9.3,9.4,24.4,9.5,33.8,0.2c4.3-4.2,6.8-9.9,7.1-15.9c12.3-0.5,22.1-10.3,22.6-22.6
		c12.3-0.5,22.1-10.4,22.6-22.6c13.2-0.6,23.4-11.8,22.7-25c-0.3-6-2.8-11.6-7-15.8l-8.5-8.5l5.7-5.7c0,0,0-0.1,0.1-0.1l22.5-22.5
		c3.1-3.1,3.1-8.2,0-11.3L321.5,162.3z M307.4,238.7c3.1,3.1,3.1,8.2,0,11.3c-3.2,3-8.1,3-11.3,0l-33.9-33.9
		c-3.1-3.1-8.2-3.1-11.3,0c-9.4,9.4-24.6,9.4-33.9,0c0,0,0,0,0,0l-11.3,11.3c2.9,2.9,6.2,5.2,9.9,7.1l-41,41l-28.3-28.3l71.2-71.2
		h27.3L307.4,238.7z M191.4,156.7l11.4,11.3l-67.9,67.9l-11.3-11.3L191.4,156.7z M253.6,373.9c-4.4,0-8-3.5-8-7.9
		c0-2.1,0.8-4.1,2.3-5.6l0.1-0.1l16.4-16.4l6.2-6.2l0,0l0,0l-11.3-11.3l-6.2,6.2L236.6,349l-0.1,0.1c-3.3,2.9-8.4,2.7-11.3-0.6
		c-2.7-3.1-2.7-7.7,0.1-10.8l22.6-22.6l-11.3-11.3l-22.6,22.6c-3.1,3.1-8.2,3.1-11.3,0s-3.1-8.2,0-11.3l22.6-22.6l-11.3-11.3
		l-22.6,22.6c-3.2,3-8.1,3-11.3,0c-3.1-3.1-3.1-8.2,0-11.3l17-17l0,0l36.5-36.5c7.9,0.1,15.7-2.1,22.3-6.5l28.9,28.8
		c9.5,9.1,24.4,9.1,33.9,0c9.4-9.4,9.4-24.6,0-33.9l-28.1-28.1l0,0l70.5,70.5l-2.4,2.4c-12.6-3.5-25.7,3.9-29.2,16.5
		c-0.5,1.7-0.8,3.5-0.8,5.3c-12.4,0.5-22.2,10.5-22.6,22.8c-12.3,0.3-22.2,10.1-22.6,22.4c-13.1,0.6-23.2,11.6-22.7,24.7
		c0.1,1.8,0.4,3.5,0.8,5.3l-2.4,2.4C257.7,373.2,255.7,374,253.6,373.9z M301.7,380.1c-3.2,3-8.1,3-11.3,0l-11.3-11.3
		c-2.9-3.3-2.6-8.4,0.7-11.3c3-2.7,7.6-2.7,10.6,0l11.3,11.3c1.5,1.5,2.4,3.5,2.3,5.6C304.1,376.6,303.3,378.6,301.7,380.1
		L301.7,380.1z M324.4,357.5c-3.1,3.1-8.2,3.1-11.3,0l-11.3-11.3c-3.1-3.1-3.1-8.2,0-11.3c0,0,0,0,0,0c1.5-1.5,3.5-2.4,5.6-2.3
		c2.1,0,4.2,0.8,5.7,2.3l11.3,11.3C327.5,349.3,327.5,354.4,324.4,357.5C324.4,357.5,324.4,357.5,324.4,357.5L324.4,357.5z
		 M347,334.9c-3.2,3-8.1,3-11.3,0l-11.3-11.3c-3.1-3.2-3-8.2,0.2-11.3c3.1-3,8-3,11.1,0l11.3,11.3c1.5,1.5,2.3,3.5,2.3,5.7
		C349.3,331.3,348.5,333.4,347,334.9L347,334.9z M369.6,312.2c-3.1,3.1-8.2,3.1-11.3,0c0,0,0,0,0,0L347,300.9
		c-3.1-3.1-3.1-8.2,0-11.3c3.1-3.1,8.2-3.1,11.3,0l11.3,11.3C372.7,304.1,372.7,309.1,369.6,312.2L369.6,312.2z M372.5,258.5
		l-67.9-67.9l11.3-11.3l67.9,67.9L372.5,258.5z"/>
	<path class="st0" d="M489.6,216.2l-48.1-9.6c-4.3-16.4-10.8-32.1-19.3-46.8l27.2-40.8c2.1-3.2,1.7-7.4-1-10.1l-45.3-45.2
		c-2.7-2.7-6.9-3.1-10.1-1l-40.8,27.2c-14.7-8.5-30.4-15-46.8-19.3l-9.6-48.1c-0.8-3.7-4-6.4-7.8-6.4h-64c-3.8,0-7.1,2.7-7.8,6.4
		l-9.6,48.1c-16.4,4.3-32.1,10.8-46.8,19.3L119,62.6c-3.2-2.1-7.4-1.7-10.1,1l-45.2,45.3c-2.7,2.7-3.1,6.9-1,10.1l27.2,40.8
		c-8.5,14.7-15,30.4-19.3,46.8l-48.1,9.6c-3.7,0.8-6.4,4-6.4,7.8v64c0,3.8,2.7,7.1,6.4,7.8l48.1,9.6c4.3,16.4,10.8,32.1,19.3,46.8
		L62.6,393c-2.1,3.2-1.7,7.4,1,10.1l45.3,45.3c2.7,2.7,6.9,3.1,10.1,1l40.8-27.2c14.7,8.5,30.4,15,46.8,19.3l9.6,48.1
		c0.7,3.8,4.1,6.5,7.9,6.4h64c3.8,0,7.1-2.7,7.8-6.4l9.6-48.1c16.4-4.3,32.1-10.8,46.8-19.3l40.8,27.2c3.2,2.1,7.4,1.7,10.1-1
		l45.3-45.3c2.7-2.7,3.1-6.9,1-10.1l-27.2-40.8c8.5-14.7,15-30.4,19.3-46.8l48.1-9.6c3.8-0.7,6.5-4.1,6.4-7.9v-64
		C496,220.2,493.3,216.9,489.6,216.2z M480,281.4l-46.6,9.3c-3.1,0.6-5.5,3-6.2,6c-4.3,18.2-11.5,35.6-21.3,51.5
		c-1.6,2.7-1.6,6,0.2,8.6l26.3,39.5l-36,36l-39.5-26.3c-2.6-1.7-6-1.8-8.6-0.2c-15.9,9.8-33.3,17-51.4,21.3c-3,0.7-5.4,3.1-6,6.2
		l-9.4,46.6h-50.9l-9.3-46.6c-0.6-3.1-3-5.5-6-6.2c-18.2-4.3-35.6-11.5-51.5-21.3c-2.7-1.6-6-1.6-8.6,0.2l-39.5,26.3l-36-36
		l26.3-39.5c1.7-2.6,1.8-6,0.2-8.6c-9.8-15.9-17-33.3-21.3-51.4c-0.7-3-3.1-5.4-6.2-6L32,281.4v-50.9l46.6-9.3c3.1-0.6,5.5-3,6.2-6
		c4.3-18.2,11.5-35.6,21.3-51.5c1.6-2.7,1.6-6-0.2-8.6l-26.3-39.5l36-36l39.5,26.3c2.6,1.7,6,1.8,8.6,0.2
		c15.9-9.8,33.3-17,51.5-21.3c3-0.7,5.4-3.1,6-6.2l9.3-46.6h50.9l9.3,46.6c0.6,3.1,3,5.5,6,6.2c18.2,4.3,35.6,11.5,51.5,21.3
		c2.7,1.6,6,1.6,8.6-0.2l39.5-26.3l36,36l-26.3,39.5c-1.7,2.6-1.8,6-0.2,8.6c9.8,15.9,17,33.3,21.3,51.5c0.7,3,3.1,5.4,6.2,6
		l46.6,9.3V281.4z"/>
	<rect x="248" y="64" class="st0" width="16" height="16"/>
	
		<rect x="117.9" y="117.9" transform="matrix(0.7071 -0.7071 0.7071 0.7071 -52.1444 125.8884)" class="st0" width="16" height="16"/>
	<rect x="64" y="248" class="st0" width="16" height="16"/>
	
		<rect x="117.9" y="378.1" transform="matrix(0.7071 -0.7071 0.7071 0.7071 -236.1497 202.1044)" class="st0" width="16" height="16"/>
	<rect x="248" y="432" class="st0" width="16" height="16"/>
	
		<rect x="378.1" y="378.1" transform="matrix(0.7071 -0.7071 0.7071 0.7071 -159.9314 386.1154)" class="st0" width="16" height="16"/>
	<rect x="432" y="248" class="st0" width="16" height="16"/>
	
		<rect x="378.1" y="117.9" transform="matrix(0.7071 -0.7071 0.7071 0.7071 24.0716 309.8937)" class="st0" width="16" height="16"/>
</g>
</svg>
