<?xml version="1.0" encoding="utf-8"?>
<!-- Generator: Adobe Illustrator 23.0.0, SVG Export Plug-In . SVG Version: 6.00 Build 0)  -->
<svg version="1.1" id="Layer_1" xmlns="http://www.w3.org/2000/svg" xmlns:xlink="http://www.w3.org/1999/xlink" x="0px" y="0px"
	 viewBox="0 0 512 512" style="enable-background:new 0 0 512 512;" xml:space="preserve">
<style type="text/css">
	.st0{fill:#3A3C92;}
</style>
<g id="Outline">
	<path class="st0" d="M480,176c0-13.3-10.7-24-24-24h-32V72c0-13.3-10.7-24-24-24H280v-8c0-13.3-10.7-24-24-24
		c-13.3,0-24,10.7-24,24v8H112c-13.3,0-24,10.7-24,24v80H56c-13.3,0-24,10.7-24,24v272H16v24c0,13.3,10.7,24,24,24h432
		c13.3,0,24-10.7,24-24v-24h-16V176z M248,40c0-4.4,3.6-8,8-8s8,3.6,8,8v8h-16V40z M336,64v16H176V64H336z M176,96h160v16H176V96z
		 M352,128V96h24v288H136V96h24v32H352z M104,72c0-4.4,3.6-8,8-8h48v16h-40v320h272V80h-40V64h48c4.4,0,8,3.6,8,8v336
		c0,4.4-3.6,8-8,8H112c-4.4,0-8-3.6-8-8V72z M48,176c0-4.4,3.6-8,8-8h32v240c0,13.3,10.7,24,24,24h288c13.3,0,24-10.7,24-24V168h32
		c4.4,0,8,3.6,8,8v272H48V176z M480,472c0,4.4-3.6,8-8,8H40c-4.4,0-8-3.6-8-8v-8h448V472z"/>
	<polygon class="st0" points="176,195.3 213.7,157.7 202.3,146.3 176,172.7 165.7,162.3 154.3,173.7 	"/>
	<rect x="232" y="160" class="st0" width="128" height="16"/>
	<polygon class="st0" points="176,228.7 165.7,218.3 154.3,229.7 176,251.3 213.7,213.7 202.3,202.3 	"/>
	<rect x="232" y="216" class="st0" width="128" height="16"/>
	<rect x="232" y="272" class="st0" width="128" height="16"/>
	<rect x="232" y="328" class="st0" width="128" height="16"/>
	<polygon class="st0" points="173.7,301.7 184,291.3 194.3,301.7 205.7,290.3 195.3,280 205.7,269.7 194.3,258.3 184,268.7 
		173.7,258.3 162.3,269.7 172.7,280 162.3,290.3 	"/>
	<polygon class="st0" points="176,340.7 165.7,330.3 154.3,341.7 176,363.3 213.7,325.7 202.3,314.3 	"/>
</g>
</svg>
